<?xml version="1.0" encoding="UTF-8"?>
<svg width="30px" height="23px" viewBox="0 0 30 23" version="1.1" xmlns="http://www.w3.org/2000/svg" xmlns:xlink="http://www.w3.org/1999/xlink">
    <!-- Generator: Sketch 50.2 (55047) - http://www.bohemiancoding.com/sketch -->
    <title>Shape</title>
    <desc>Created with Sketch.</desc>
    <defs></defs>
    <g id="Page-1" stroke="none" stroke-width="1" fill="none" fill-rule="evenodd">
        <g id="Desktop-HD-Copy-15" transform="translate(-557.000000, -290.000000)" fill="#FFFFFF" fill-rule="nonzero">
            <g id="Group" transform="translate(428.000000, 267.000000)">
                <path d="M156.870489,23.0176789 C156.452955,23.0778809 156.067964,23.2772514 155.777851,23.583509 C149.526367,29.8485303 144.847411,35.0184228 138.880992,41.0657032 L132.091031,35.3293562 C131.579013,34.8943084 130.873445,34.766269 130.241213,34.9936701 C129.608981,35.2210713 129.146615,35.7691935 129.029008,36.4307046 C128.911401,37.0922157 129.156509,37.7661167 129.671619,38.1974985 L137.788355,45.0655058 C138.535362,45.6928629 139.63879,45.6419354 140.324835,44.9484375 C147.023422,38.2355223 151.810229,32.853065 158.4314,26.2175459 C159.012496,25.6535027 159.165352,24.7799159 158.810305,24.0520704 C158.455259,23.3242249 157.672706,22.9069351 156.870489,23.0176789 Z" id="Shape"></path>
            </g>
        </g>
    </g>
</svg>