<?xml version="1.0" encoding="UTF-8"?>
<svg width="24px" height="24px" viewBox="0 0 24 24" version="1.1" xmlns="http://www.w3.org/2000/svg" xmlns:xlink="http://www.w3.org/1999/xlink">
    <!-- Generator: Sketch 50.2 (55047) - http://www.bohemiancoding.com/sketch -->
    <title>Shape</title>
    <desc>Created with Sketch.</desc>
    <defs></defs>
    <g id="Page-1" stroke="none" stroke-width="1" fill="none" fill-rule="evenodd">
        <g id="Desktop-HD-Copy-15" transform="translate(-561.000000, -212.000000)" fill="#FFFFFF" fill-rule="nonzero">
            <path d="M572.998892,226.124136 L582.435254,235.56086 C583.021678,236.147285 583.974437,236.145475 584.559413,235.56086 C585.145475,234.974436 585.145837,234.023126 584.559051,233.436701 L575.123051,224.000339 L584.559413,214.563977 C585.145475,213.977553 585.145475,213.02588 584.559413,212.439818 C583.972989,211.853394 583.021678,211.853394 582.435254,212.439818 L572.998892,221.87618 L563.56253,212.439818 C562.976106,211.853394 562.024795,211.853394 561.438733,212.439818 C561.145521,212.73303 561.000725,213.116016 561.001087,213.501174 C561.000001,213.887055 561.145521,214.270765 561.438733,214.563977 L570.875095,224.000339 L561.439819,233.435253 C561.146607,233.728828 560.999639,234.113261 561.000001,234.497695 C561.000725,234.882491 561.146607,235.266562 561.439457,235.559774 C562.025519,236.145837 562.977191,236.146199 563.563616,235.559774 L572.998892,226.124136 Z" id="Shape"></path>
        </g>
    </g>
</svg>