<?xml version="1.0" encoding="UTF-8"?>
<svg width="16px" height="18px" viewBox="0 0 16 18" version="1.1" xmlns="http://www.w3.org/2000/svg" xmlns:xlink="http://www.w3.org/1999/xlink">
    <!-- Generator: Sketch 50.2 (55047) - http://www.bohemiancoding.com/sketch -->
    <title>gift-box</title>
    <desc>Created with Sketch.</desc>
    <defs></defs>
    <g id="Page-1" stroke="none" stroke-width="1" fill="none" fill-rule="evenodd">
        <g id="Desktop-HD-Copy-12" transform="translate(-602.000000, -576.000000)" fill-rule="nonzero">
            <g id="Group-7" transform="translate(524.000000, 576.000000)">
                <g id="gift-box" transform="translate(78.000000, 0.000000)">
                    <path d="M13.6976429,9.12652734 L11.9619286,8.50422656 C11.9083571,8.48316797 11.8440714,8.47262109 11.7798214,8.47262109 L0.658392857,8.47262109 C0.358357143,8.47262109 0.122678571,8.70461719 0.122678571,8.99996484 L0.122678571,16.4179336 C0.122678571,17.2932891 0.8405,17.9999648 1.72982143,17.9999648 L12.4441071,17.9999648 C13.3334286,17.9999648 14.05125,17.2932891 14.05125,16.4179336 L14.05125,9.62219531 C14.05125,9.40074609 13.9119286,9.20035547 13.6976429,9.12652734 Z" id="Shape" fill="#FC1A40"></path>
                    <path d="M14.05125,9.62219531 L14.05125,16.4179336 C14.05125,17.2932891 13.3334286,17.9999648 12.4441071,17.9999648 L7.08696429,17.9999648 L7.08696429,8.47262109 L11.7798214,8.47262109 C11.8441071,8.47262109 11.9083929,8.48316797 11.9619286,8.50422656 L13.6976429,9.12652734 C13.9119286,9.20035547 14.05125,9.40074609 14.05125,9.62219531 Z" id="Shape" fill="#C60034"></path>
                    <path d="M13.8583929,3.43785937 C13.6762857,2.710125 13.1298214,2.14062891 12.3905357,1.9085625 C11.6619643,1.68704297 10.8797857,1.84528125 10.3119643,2.35149609 L9.06907143,3.4273125 L8.82267857,1.81367578 C8.70482143,1.07539453 8.22267857,0.45309375 7.50485714,0.157816406 C7.36557143,0.105046875 7.22628571,0.062859375 7.087,0.041765625 C6.49771429,-0.07425 5.887,0.0523125 5.39410714,0.410941406 C4.74053571,0.875003906 4.40842857,1.65547266 4.51553571,2.43590625 C4.63342857,3.216375 5.16914286,3.88082812 5.92982143,4.1445 L7.087,4.55582813 L8.512,5.072625 C8.52271429,5.072625 8.52271429,5.072625 8.52271429,5.072625 L10.9977143,5.96907422 C11.2441071,6.05348438 11.50125,6.09570703 11.7476786,6.09570703 C12.27275,6.09570703 12.787,5.90579297 13.1941429,5.54723438 C13.7941071,5.01989063 14.05125,4.20774609 13.8583929,3.43785937 Z" id="Shape" fill="#FE9923"></path>
                    <path d="M13.1941071,5.54723438 C12.7869643,5.90579297 12.2726786,6.09570703 11.7476429,6.09570703 C11.50125,6.09570703 11.2441071,6.05348438 10.9976786,5.96907422 L8.52267857,5.072625 C8.52267857,5.072625 8.52267857,5.072625 8.51196429,5.072625 L7.08696429,4.55582813 L7.08696429,0.0417304687 C7.22625,0.062859375 7.36553571,0.105011719 7.50482143,0.15778125 C8.22264286,0.453058594 8.70482143,1.07535938 8.82264286,1.81364063 L9.06903571,3.42727734 L10.3119286,2.35146094 C10.87975,1.84524609 11.6619286,1.68700781 12.3905,1.90852734 C13.1297857,2.14059375 13.6762143,2.71008984 13.8583571,3.43782422 C14.05125,4.20774609 13.7941071,5.01989063 13.1941071,5.54723438 Z" id="Shape" fill="#FE8821"></path>
                    <path d="M15.8833929,8.23000781 L15.1548214,10.2128203 C15.0690714,10.4237578 14.8655,10.5503203 14.6512143,10.5503203 C14.5869286,10.5503203 14.5226429,10.5397734 14.4691071,10.5187148 L8.92978571,8.53590234 L8.42625,6.90113672 L7.08696429,7.19641406 L5.90842857,7.46008594 L0.369107143,5.47727344 C0.0905357143,5.37183984 -0.0487142857,5.06594531 0.0476785714,4.80227344 L0.786964286,2.81953125 C0.92625,2.41875 1.22628571,2.10227344 1.612,1.92301172 C1.99771429,1.74375 2.43696429,1.72262109 2.84410714,1.87027734 L7.087,3.38902734 L7.37632143,3.49446094 C7.37632143,3.49446094 8.53342857,5.56168359 8.56560714,5.56168359 C8.58707143,5.56168359 9.04775,5.30855859 9.49775,5.06594531 C9.94764286,4.82336719 10.3976786,4.57027734 10.3976786,4.57027734 L14.9190714,6.19446094 C15.3262143,6.34211719 15.6476429,6.63746484 15.82975,7.01715234 C16.0119643,7.39680469 16.0333571,7.82926172 15.8833929,8.23000781 Z" id="Shape" fill="#FF3E75"></path>
                    <path d="M15.8833929,8.23000781 L15.1548214,10.2128203 C15.0690714,10.4237578 14.8655,10.5503203 14.6512143,10.5503203 C14.5869286,10.5503203 14.5226429,10.5397734 14.4691071,10.5187148 L8.92978571,8.53590234 L8.42625,6.90113672 L7.08696429,7.19641406 L7.08696429,3.38902734 L7.37628571,3.49446094 C7.37628571,3.49446094 8.53339286,5.56168359 8.56557143,5.56168359 C8.58703571,5.56168359 9.04771429,5.30855859 9.49771429,5.06594531 C9.94764286,4.82336719 10.3976786,4.57027734 10.3976786,4.57027734 L14.9190714,6.19446094 C15.3262143,6.34211719 15.6476429,6.63746484 15.82975,7.01715234 C16.0119643,7.39680469 16.0333571,7.82926172 15.8833929,8.23000781 Z" id="Shape" fill="#FC1A40"></path>
                    <g id="Group" transform="translate(5.464286, 3.480469)" fill="#FCBF29">
                        <polygon id="Shape" points="0.0155357143 4.99215234 0.0155357143 14.5194961 3.22982143 14.5194961 3.22982143 4.99215234"></polygon>
                        <polygon id="Shape" points="1.91196429 0.0139921875 1.62264286 0.794460937 0.444107143 3.97965234 1.62264286 4.4015625 2.96192857 4.87617188 3.46546429 5.05543359 4.93339286 1.08980859"></polygon>
                    </g>
                    <g id="Group" transform="translate(7.071429, 3.480469)" fill="#FE9923">
                        <rect id="Rectangle-path" x="0.0156785714" y="4.99215234" width="1.60714286" height="9.52734375"></rect>
                        <polygon id="Shape" points="3.32625 1.08980859 1.85835714 5.05543359 1.35482143 4.87613672 0.0155357143 4.40152734 0.0155357143 0.794460937 0.304821429 0.0139921875"></polygon>
                    </g>
                </g>
            </g>
        </g>
    </g>
</svg>