<?xml version="1.0" encoding="UTF-8"?>
<svg width="22px" height="29px" viewBox="0 0 22 29" version="1.1" xmlns="http://www.w3.org/2000/svg" xmlns:xlink="http://www.w3.org/1999/xlink">
    <!-- Generator: Sketch 50.2 (55047) - http://www.bohemiancoding.com/sketch -->
    <title>Fill 2</title>
    <desc>Created with Sketch.</desc>
    <defs></defs>
    <g id="Page-1" stroke="none" stroke-width="1" fill="none" fill-rule="evenodd">
        <g id="pasargad" transform="translate(-246.000000, -188.000000)" fill="#F0C239">
            <path d="M246.744827,188.010787 C249.630591,187.989155 252.517525,188.007864 255.403874,188.001433 C256.964268,188.008448 258.525247,187.988571 260.085641,188.011371 C260.059917,188.167469 260.028931,188.321813 259.997361,188.476742 C255.607327,188.484927 251.216709,188.485511 246.82726,188.476157 C246.795105,188.321813 246.767043,188.166885 246.744827,188.010787 M246.872277,188.726966 C247.182134,188.708258 247.493161,188.714689 247.803603,188.715273 C251.564568,188.715273 255.325533,188.715858 259.087082,188.715273 C259.376477,188.714104 259.666457,188.711181 259.955851,188.724628 C259.734274,190.092676 259.52439,191.462479 259.309828,192.831697 C258.823996,192.813573 258.47146,192.348788 258.424689,191.894525 C258.550971,191.703934 258.7363,191.545497 258.797687,191.316905 C258.856735,191.087727 258.870767,190.84978 258.924553,190.619434 C258.985355,190.352255 259.134438,190.116062 259.206348,189.851806 C259.115145,189.886884 259.023941,189.92664 258.950862,189.993873 C258.701222,190.212527 258.460937,190.446381 258.261576,190.71356 C257.962242,190.389087 257.659985,190.060521 257.300434,189.801528 C257.281141,190.030705 257.450685,190.211942 257.510903,190.422411 C257.641861,190.739869 257.598598,191.09942 257.739496,191.41337 C257.817252,191.591099 257.961657,191.725565 258.056368,191.892771 C258.033568,192.28857 257.759373,192.67443 257.377606,192.805389 C257.008116,192.895422 256.571392,192.85859 256.295444,192.570365 C256.090821,192.390881 256.090821,192.069916 255.856967,191.917911 C255.775702,192.323648 256.051066,192.694892 256.376124,192.903023 C256.937959,193.256143 257.779251,193.066136 258.089693,192.46513 C258.250468,192.257584 258.192004,191.993913 258.206035,191.751874 C258.252222,191.796891 258.31127,191.833138 258.344594,191.891017 C258.327055,192.066408 258.271515,192.257584 258.378503,192.417775 C258.546294,192.770895 258.89766,192.982533 259.263058,193.081921 C259.246688,193.19651 259.230903,193.311099 259.214533,193.425103 C256.210087,193.442057 253.205057,193.427441 250.200611,193.432703 C249.340027,193.424518 248.479442,193.449658 247.619442,193.419841 C247.601319,193.301745 247.58378,193.184233 247.566825,193.066136 C247.864405,192.932255 248.162569,192.756279 248.317498,192.456361 C248.44261,192.278047 248.41104,192.054716 248.361346,191.856524 C248.412209,191.826123 248.463072,191.795722 248.51452,191.765905 C248.507505,191.97462 248.468334,192.200875 248.585261,192.389128 C248.774099,192.802465 249.217253,193.09186 249.673854,193.074321 C250.283045,193.11583 250.919129,192.569195 250.865343,191.938958 C250.827926,191.952404 250.752508,191.979882 250.715091,191.993329 C250.613949,192.349957 250.387695,192.703077 250.013528,192.811235 C249.713025,192.866775 249.366335,192.880222 249.108511,192.688461 C248.823208,192.497285 248.66828,192.160535 248.637879,191.824954 C248.781115,191.71855 248.913242,191.588176 248.977552,191.418047 C249.112019,191.116959 249.077525,190.774362 249.19036,190.466844 C249.261101,190.245266 249.386213,190.045321 249.445846,189.819651 C249.361074,189.855899 249.273963,189.892146 249.206145,189.956456 C248.940136,190.194988 248.689327,190.449889 248.45138,190.716483 C248.187124,190.389087 247.901237,190.057014 247.528824,189.850637 C247.577349,190.117816 247.721754,190.353424 247.788987,190.614757 C247.855051,190.859134 247.860897,191.11579 247.932223,191.358414 C247.998871,191.568883 248.176016,191.712703 248.291774,191.893941 C248.24968,192.318971 247.9445,192.713016 247.527654,192.832282 C247.307247,191.464233 247.075731,190.097353 246.872277,188.726966 M248.384147,189.189998 C248.330945,189.430284 248.376546,189.675831 248.368361,189.918455 C248.287097,189.757095 248.270142,189.55598 248.146784,189.420929 C248.09709,189.417422 247.997702,189.410991 247.948008,189.408067 C247.939238,189.687523 248.150292,189.895654 248.316329,190.095015 C248.3783,190.064029 248.440856,190.033628 248.503412,190.003227 C248.544922,189.779311 248.622678,189.55715 248.609816,189.326803 C248.607478,189.205199 248.46658,189.222153 248.384147,189.189998 M250.770632,189.320372 C250.776478,189.558904 250.838449,189.793927 250.832018,190.034213 C250.868266,190.035382 250.940176,190.037721 250.976424,190.03889 C250.969408,189.79802 251.019102,189.561242 251.026702,189.322126 C251.029626,189.168951 250.779401,189.17129 250.770632,189.320372 M253.238381,189.206368 C253.162378,189.471793 253.242474,189.742479 253.297429,190.003227 C253.362324,190.03012 253.427219,190.057598 253.492113,190.085661 C253.667504,189.900331 253.868619,189.691031 253.861603,189.417422 C253.807232,189.415083 253.69849,189.410991 253.643534,189.408652 C253.568701,189.595151 253.502637,189.785158 253.428973,189.972241 C253.43365,189.723186 253.458789,189.474716 253.453527,189.225076 C253.381617,189.220399 253.309707,189.213968 253.238381,189.206368 M255.704377,189.196429 C255.613758,189.471208 255.74764,189.749495 255.742963,190.027782 C255.839428,190.024274 255.965709,190.100861 256.038204,190.006735 C256.180855,189.844206 256.30129,189.655368 256.352154,189.442561 C256.299536,189.429699 256.194302,189.402806 256.142269,189.389359 C256.024173,189.570596 255.973894,189.782819 255.888537,189.979257 C255.873921,189.759434 255.921277,189.543703 255.93297,189.325634 C255.920692,189.206368 255.790318,189.223322 255.704377,189.196429 M258.116001,189.228584 C258.099631,189.492255 258.165695,189.74891 258.213636,190.00615 C258.276192,190.040059 258.338748,190.073968 258.401304,190.108462 C258.569679,189.914362 258.735131,189.706232 258.797687,189.45133 C258.733962,189.426191 258.670236,189.401052 258.607096,189.375912 C258.476137,189.537272 258.435797,189.745402 258.346933,189.928394 C258.32647,189.685185 258.389026,189.440222 258.336409,189.199352 C258.262745,189.209291 258.189081,189.218645 258.116001,189.228584 M248.589939,190.068706 C248.822039,189.941256 248.965275,189.684016 249.000938,189.426191 C248.947151,189.41976 248.838994,189.405729 248.784622,189.398713 C248.682311,189.609182 248.591692,189.830175 248.589939,190.068706 M250.359048,189.438468 C250.436804,189.689277 250.55607,189.964056 250.802787,190.089169 C250.768878,189.844206 250.711583,189.598074 250.569517,189.390528 C250.5169,189.402221 250.411665,189.426191 250.359048,189.438468 M251.1828,189.477054 C251.081073,189.666477 251.037226,189.879869 250.999224,190.089753 C251.241848,189.952948 251.391515,189.686939 251.444717,189.41976 C251.36053,189.429114 251.223725,189.367143 251.1828,189.477054 M252.808674,189.42853 C252.853691,189.680508 252.987572,189.936579 253.214996,190.066952 C253.226688,189.827252 253.126716,189.607428 253.021481,189.398713 C252.968279,189.406313 252.861875,189.420929 252.808674,189.42853 M255.266484,189.417422 C255.322025,189.663553 255.43369,189.98978 255.706131,190.055844 C255.66696,189.859407 255.623697,189.659461 255.529571,189.481147 C255.489231,189.374743 255.350087,189.432037 255.266484,189.417422 M257.712018,189.425606 C257.758204,189.680508 257.896178,189.938332 258.127109,190.068706 C258.128279,189.830175 258.042922,189.605674 257.93301,189.398129 C257.87747,189.405144 257.766973,189.419175 257.712018,189.425606 M247.701876,189.527918 C247.662121,189.594566 247.622366,189.661215 247.582026,189.727863 C247.76794,189.935409 247.977824,190.125416 248.228633,190.252282 C248.114045,189.975165 247.956777,189.698632 247.701876,189.527918 M249.11728,189.570012 C248.967029,189.784573 248.791053,189.991534 248.724405,190.251113 C248.935459,190.109631 249.151189,189.962303 249.311964,189.762942 C249.316057,189.696878 249.317226,189.630814 249.316057,189.564165 C249.249408,189.565919 249.183344,189.567673 249.11728,189.570012 M250.039836,189.562411 C250.041006,189.670569 250.062637,189.776973 250.114085,189.872269 C250.054452,189.871684 249.994819,189.871099 249.935186,189.870515 C250.03399,190.121908 250.163779,190.362194 250.229843,190.62528 C250.279537,190.857381 250.287137,191.097081 250.359048,191.324505 C250.416927,191.54082 250.577702,191.703934 250.719184,191.869386 C250.833772,191.844247 250.951869,191.840154 251.067042,191.865878 C251.186893,191.751874 251.31142,191.635531 251.383915,191.483526 C251.515458,191.218101 251.508443,190.914675 251.575676,190.631711 C251.638232,190.36044 251.783222,190.118985 251.860978,189.852976 C251.459333,190.026028 251.203847,190.410719 250.902175,190.712391 C250.665982,190.418319 250.354955,190.193818 250.132209,189.889223 C250.297076,189.985103 250.438558,190.113139 250.588225,190.230066 C250.589394,190.195572 250.591148,190.126585 250.591733,190.092676 C250.492929,189.908516 250.374833,189.730787 250.230428,189.57995 C250.166702,189.571181 250.103562,189.565335 250.039836,189.562411 M251.563398,189.568258 C251.407301,189.76528 251.253541,189.968149 251.161753,190.204927 C251.386254,190.124831 251.571583,189.966395 251.725927,189.788666 C251.79316,189.72494 251.729435,189.634322 251.720081,189.560657 C251.68091,189.562411 251.602569,189.565919 251.563398,189.568258 M252.497647,189.560657 C252.490631,189.600413 252.476016,189.680508 252.469,189.720263 C252.510509,189.779896 252.553188,189.839529 252.595281,189.899162 C252.514602,189.882207 252.434506,189.864668 252.354411,189.848298 C252.473677,190.141786 252.626267,190.42475 252.690577,190.73753 C252.734425,190.949753 252.71864,191.175423 252.811597,191.375368 C252.893446,191.583499 253.065329,191.740766 253.144839,191.948896 C253.091637,192.32891 252.831474,192.676769 252.466661,192.807142 C252.139265,192.880807 251.755159,192.875545 251.486811,192.646367 C251.233664,192.462207 251.163507,192.14358 251.012671,191.88634 C250.964146,191.994498 250.912114,192.112595 250.956546,192.23186 C251.071719,192.61889 251.403208,192.930501 251.789068,193.041582 C252.137511,193.114076 252.52454,193.083091 252.818028,192.865021 C253.077606,192.711262 253.190441,192.420698 253.345954,192.178074 C253.482759,192.439991 253.618395,192.725878 253.884404,192.881391 C254.170291,193.083091 254.537443,193.105307 254.873024,193.050936 C255.262976,192.957394 255.597973,192.659229 255.730101,192.280385 C255.772779,192.118441 255.740624,191.950066 255.737116,191.785783 C255.828904,191.818523 255.945247,191.925511 256.023004,191.809753 C256.32643,191.570052 256.397755,191.1725 256.440434,190.811194 C256.473758,190.47269 256.64798,190.173941 256.767245,189.861745 C256.704105,189.868761 256.641549,189.875776 256.578993,189.883377 C256.609978,189.813805 256.642133,189.744233 256.673704,189.674661 C256.657919,189.648353 256.626348,189.595151 256.609978,189.568842 C256.576069,189.566504 256.507667,189.562411 256.473758,189.560073 C256.310645,189.752418 256.154547,189.957625 256.076205,190.200834 C256.250427,190.118985 256.398925,189.995627 256.5597,189.891562 C256.517021,190.011997 256.41471,190.092092 256.324091,190.17511 C256.138762,190.340562 255.969802,190.523553 255.808442,190.711806 C255.598558,190.468013 255.348333,190.262221 255.154819,190.004396 C255.2887,190.083907 255.416736,190.172187 255.550617,190.252282 C255.476369,189.991534 255.293962,189.787496 255.142541,189.569427 C255.074139,189.567673 255.005737,189.565335 254.937919,189.563581 C254.946104,189.685185 254.978259,189.802112 255.033214,189.910855 C254.957796,189.873438 254.881794,189.836606 254.805791,189.800943 C254.888225,190.057598 255.030291,190.290868 255.102786,190.551616 C255.196913,190.846857 255.170019,191.1725 255.309163,191.455463 C255.38575,191.623254 255.539509,191.74252 255.615512,191.909726 C255.568741,192.351126 255.22556,192.792527 254.763112,192.836959 C254.506457,192.860929 254.225247,192.855083 254.005424,192.703077 C253.731814,192.543471 253.58507,192.238876 253.513745,191.941881 C253.492698,191.8232 253.620733,191.760644 253.680366,191.677625 C253.897266,191.457217 253.93176,191.133329 253.976192,190.84218 C254.008932,190.492568 254.180815,190.180372 254.310604,189.860576 C254.247463,189.867591 254.184323,189.874607 254.121182,189.881623 C254.156845,189.807959 254.192508,189.734879 254.227586,189.661799 C254.164445,189.628475 254.105397,189.541364 254.025302,189.574104 C253.814833,189.749495 253.677443,189.995627 253.580978,190.24819 C253.752861,190.138863 253.914805,190.015504 254.077919,189.892731 C254.079088,189.916116 254.081427,189.962887 254.082596,189.985688 C253.80314,190.190311 253.549992,190.431765 253.348877,190.714729 C253.114438,190.434689 252.83089,190.199665 252.597035,189.919624 C252.769503,190.020766 252.923262,190.148217 253.090468,190.256375 C253.017973,189.994458 252.832059,189.791589 252.683561,189.571766 C252.62159,189.568258 252.559619,189.564165 252.497647,189.560657 M257.397483,189.561827 C257.39456,189.62906 257.395145,189.696293 257.399237,189.762942 C257.565859,189.959964 257.778082,190.114893 257.993812,190.254621 C257.93301,189.989196 257.733649,189.793927 257.593921,189.570012 C257.527857,189.567088 257.462378,189.56475 257.397483,189.561827 M258.489584,190.248774 C258.727531,190.109046 258.944431,189.935409 259.128591,189.729617 C259.088251,189.662969 259.048496,189.595736 259.00991,189.528502 C258.755009,189.696878 258.608265,189.976334 258.489584,190.248774 M248.22571,190.244682 C248.286512,190.370963 248.375962,190.479121 248.489966,190.56097 C248.55603,190.480875 248.630863,190.405457 248.675295,190.310746 C248.650741,190.23942 248.62034,190.163417 248.55603,190.1184 C248.42741,190.083322 248.326852,190.185049 248.22571,190.244682 M250.778232,190.097938 C250.758939,190.184464 250.692875,190.269237 250.714507,190.36044 C250.768878,190.43995 250.837865,190.508937 250.902759,190.580263 C250.971747,190.476782 251.105628,190.388502 251.103874,190.254621 C251.05418,190.111969 250.903344,190.111385 250.778232,190.097938 M253.100407,190.304899 C253.171733,190.387918 253.242474,190.470936 253.313799,190.553954 C253.405003,190.477952 253.491529,190.396687 253.575132,190.3125 C253.49679,190.232989 253.444758,190.069876 253.305614,190.116646 C253.204472,190.123662 253.167056,190.243513 253.100407,190.304899 M255.66696,190.162248 C255.515539,190.292622 255.686253,190.452812 255.768102,190.563893 C255.858721,190.483213 255.946416,190.399026 256.031188,190.313084 C255.963371,190.181541 255.806104,190.021351 255.66696,190.162248 M258.092616,190.189726 C257.968088,190.328285 258.144648,190.453397 258.224159,190.558047 C258.312439,190.476198 258.398381,190.390841 258.483153,190.304315 C258.402473,190.177449 258.213636,190.00732 258.092616,190.189726 M247.699538,193.700467 C247.811203,193.691697 247.923453,193.684097 248.036288,193.682343 C251.290958,193.682927 254.546212,193.682343 257.800882,193.682343 C258.245791,193.691697 258.692453,193.659542 259.135607,193.704559 C259.140869,193.746068 259.150807,193.829087 259.155484,193.870596 C255.330794,193.875273 251.505519,193.874688 247.680829,193.87118 C247.685506,193.828502 247.69486,193.743145 247.699538,193.700467 M247.706553,194.017924 C251.513704,194.017339 255.320271,194.014416 259.126837,194.019678 C258.667313,196.867441 258.231175,199.718712 257.781005,202.567644 C257.558843,203.636944 257.464717,204.779323 257.824852,205.829914 C258.042922,206.506923 258.553894,207.09916 259.223302,207.358154 C259.737782,207.554591 260.2242,207.85334 260.574397,208.284217 C260.764403,208.522749 260.912316,208.818575 260.884254,209.13194 C260.878992,209.426012 260.643968,209.679744 260.370359,209.759255 C260.087395,209.809533 259.784553,209.817134 259.518544,209.694945 C258.851474,209.451151 258.066892,209.317854 257.413269,209.672728 C256.990577,209.877936 256.699428,210.343891 256.770753,210.8192 C256.880665,211.552919 257.538965,212.15334 258.265668,212.245128 C261.454859,212.248051 264.644634,212.24162 267.833825,212.248051 C267.832655,212.437473 267.83324,212.626895 267.834994,212.816317 C266.770956,212.849057 265.705749,212.820995 264.641126,212.830349 C258.456844,212.826841 252.272562,212.837949 246.08828,212.825087 C246.08068,212.632157 246.081849,212.438642 246.094126,212.246297 C248.768837,212.244543 251.442963,212.246297 254.117674,212.245712 C254.423439,212.24162 254.732127,212.267929 255.034384,212.20888 C254.978843,212.174972 254.919795,212.150417 254.857239,212.135216 C253.502052,211.966256 252.252684,211.21266 251.400285,210.155638 C250.448497,208.992212 249.93694,207.535883 249.651638,206.077216 C248.990999,202.058426 248.367777,198.036129 247.706553,194.017924 M252.720978,197.319949 C252.71747,197.842614 252.697008,198.365279 252.70987,198.887359 C252.957171,198.836496 253.20798,198.801418 253.459958,198.779202 C253.621318,198.348909 253.761631,197.911017 253.925913,197.481894 C253.981454,197.353274 254.009516,197.186068 253.894343,197.080249 C253.701998,196.906612 253.419618,196.938767 253.179333,196.940521 C252.963602,196.936428 252.699931,197.070894 252.720978,197.319949 M251.382161,197.567251 C251.278681,197.695871 251.317851,197.868923 251.390346,198.00222 C251.583861,198.389834 251.768606,198.782709 251.960366,199.171492 C252.180774,199.09432 252.385982,198.982655 252.59762,198.885605 C252.575404,198.371125 252.595866,197.854892 252.560788,197.341581 C252.527464,197.114158 252.252684,197.164436 252.088402,197.185483 C251.828823,197.249209 251.555798,197.354443 251.382161,197.567251 M254.300665,197.205945 C254.155675,197.272009 254.117089,197.435123 254.064472,197.570174 C253.926498,197.974742 253.752276,198.367033 253.628918,198.777448 C253.849911,198.828896 254.070903,198.882682 254.294819,198.924776 C254.559659,198.651751 254.763697,198.329616 255.011583,198.041975 C255.130264,197.899324 255.278762,197.727441 255.199251,197.52808 C255.046076,197.21413 254.618123,197.059202 254.300665,197.205945 M255.254792,197.992866 C254.969489,198.2998 254.729788,198.646489 254.463194,198.969793 C254.609353,199.111275 254.749081,199.260357 254.877117,199.418794 C255.208021,199.24808 255.53834,199.075027 255.863398,198.892621 C256.04405,198.791479 256.217103,198.601472 256.188456,198.38048 C256.124146,198.155395 255.968048,197.956034 255.769271,197.833845 C255.583942,197.76135 255.379319,197.848461 255.254792,197.992866 M250.610441,198.142533 C250.397634,198.326693 250.337416,198.61258 250.324554,198.880928 C250.66832,199.207155 251.049503,199.491873 251.388592,199.823362 C251.542351,199.652063 251.688511,199.473749 251.841101,199.301866 C251.685587,198.836496 251.427178,198.415558 251.227233,197.96948 C251.01384,197.980588 250.785832,198.010405 250.610441,198.142533 M249.636437,199.750282 C249.787274,199.906965 250.004758,199.974783 250.19535,200.072417 C250.506376,200.204545 250.78934,200.402152 251.119659,200.48517 C251.194493,200.310948 251.262895,200.133804 251.327205,199.954905 C251.06295,199.705265 250.775309,199.483104 250.506376,199.23931 C250.376587,199.138168 250.254982,198.999025 250.083099,198.979147 C249.696655,198.920683 249.461631,199.450364 249.636437,199.750282 M252.536233,199.189032 C252.311148,199.295435 252.336872,199.589507 252.41989,199.781853 C252.554941,200.096972 252.781196,200.391044 253.075852,200.568773 C253.256505,200.548311 253.41728,200.451846 253.587409,200.392213 C253.56987,200.084694 253.426634,199.798222 253.436573,199.487781 C253.437158,199.337529 253.431896,199.186693 253.410849,199.037611 C253.115023,199.04638 252.809843,199.07035 252.536233,199.189032 M253.630672,199.114198 C253.600856,199.536305 253.547654,200.025646 253.828864,200.379936 C254.024132,200.415598 254.223493,200.390459 254.420516,200.385782 C254.435132,200.087617 254.528673,199.803484 254.671325,199.542736 C254.448578,199.203647 254.018871,199.077951 253.630672,199.114198 M251.453487,200.154266 C251.382161,200.363566 251.586784,200.534864 251.735866,200.647114 C252.02643,200.836536 252.351488,201.034728 252.709285,201.030051 C252.808089,200.932417 252.883507,200.81432 252.96711,200.703824 C252.786457,200.513233 252.578912,200.345442 252.432752,200.125034 C252.299455,199.925089 252.190713,199.710527 252.069693,199.503566 C251.757498,199.583076 251.569245,199.874225 251.453487,200.154266 M249.526526,200.095802 C249.349381,200.204545 249.306118,200.423783 249.283902,200.614375 C249.267532,200.744164 249.27864,200.907277 249.403752,200.982111 C249.753949,201.12067 250.13864,201.106638 250.502284,201.189072 C250.682352,201.229997 250.865927,201.256305 251.048334,201.284368 C251.053011,201.079745 251.065288,200.875707 251.071719,200.671669 C250.709829,200.495694 250.33917,200.338426 249.96968,200.17999 C249.829367,200.127957 249.679116,200.049031 249.526526,200.095802 M251.355268,200.529018 C251.243602,200.844721 251.259972,201.189072 251.331882,201.511207 C251.372222,201.661458 251.435363,201.824572 251.576845,201.907005 C251.957443,201.949684 252.333364,201.845619 252.712209,201.831587 C252.704024,201.613518 252.701685,201.394864 252.706947,201.176795 C252.21176,201.075653 251.70605,200.914878 251.355268,200.529018 M253.229027,200.819582 C252.966525,201.021281 252.881168,201.387264 252.956587,201.700629 C253.001019,201.914021 253.150101,202.082396 253.295091,202.237325 C253.5611,202.51912 253.801386,202.823715 254.067395,203.104925 C255.053677,204.133885 256.025927,205.232416 256.571392,206.56831 C256.96076,207.566284 257.058979,208.654877 257.043194,209.71833 C257.237878,209.586202 257.433731,209.44472 257.667585,209.390934 C257.987966,209.289792 258.329978,209.315516 258.658544,209.35761 C258.439305,208.857746 258.349271,208.316372 258.197266,207.795461 C257.863438,206.711546 257.476409,205.635231 256.913405,204.647195 C256.23815,203.581404 255.386335,202.634877 254.770128,201.529915 C254.602338,201.234674 254.508211,200.904939 254.432793,200.575789 C254.020624,200.530772 253.573962,200.567019 253.229027,200.819582 M249.584989,201.382002 C249.410768,201.549793 249.420122,201.822233 249.458123,202.042641 C249.516587,202.230309 249.746349,202.219786 249.904785,202.22154 C250.395295,202.201077 250.885805,202.204001 251.376899,202.203416 C251.260557,201.952607 251.124921,201.709398 251.050672,201.44105 C250.711583,201.377325 250.366063,201.357447 250.022297,201.332308 C249.876723,201.327631 249.717702,201.305999 249.584989,201.382002 M251.781468,202.066026 C251.569245,202.32619 251.891964,202.75122 252.201237,202.671125 C252.529802,202.638385 252.844921,202.529058 253.171733,202.481703 C253.030835,202.306897 252.901046,202.122736 252.746117,201.960792 C252.420475,201.928052 252.105941,202.056088 251.781468,202.066026 M250.488837,202.398684 C250.254982,202.419731 250.007097,202.410377 249.793705,202.523212 C249.689639,202.554782 249.700163,202.672879 249.715948,202.757066 C249.762134,202.941227 249.891923,203.095571 250.049191,203.197298 C250.639673,203.152865 251.216124,202.989167 251.783222,202.821376 C251.64057,202.657678 251.532413,202.47001 251.411393,202.291696 C251.099782,202.28468 250.79811,202.377638 250.488837,202.398684 M252.329272,202.794483 C252.238069,202.823715 252.110618,202.875748 252.132249,202.994429 C252.142188,203.25693 252.415798,203.516509 252.6859,203.426475 C253.037266,203.333518 253.395064,203.259854 253.732399,203.122464 C253.602025,202.942396 253.458204,202.772852 253.30386,202.612661 C252.97471,202.650078 252.653745,202.730758 252.329272,202.794483 M250.705152,203.276223 C250.553147,203.327087 250.356709,203.328256 250.262583,203.478508 C250.229843,203.671438 250.350278,203.869045 250.513392,203.96551 C250.654289,204.070744 250.823834,203.96434 250.971747,203.933939 C251.3921,203.795965 251.820638,203.685469 252.2445,203.557433 C252.060924,203.416536 251.92178,203.228283 251.859224,203.003783 C251.467518,203.061077 251.092766,203.196713 250.705152,203.276223 M253.026158,203.479677 C252.908646,203.519432 252.727409,203.559772 252.732671,203.716455 C252.700516,203.9088 252.861291,204.080098 253.029081,204.145577 C253.199211,204.150255 253.356478,204.06899 253.519591,204.032158 C253.800217,203.945632 254.095458,203.905877 254.362637,203.777841 C254.200692,203.618236 254.079673,203.402505 253.876219,203.293763 C253.58507,203.308963 253.306784,203.408936 253.026158,203.479677 M251.338898,204.001172 C251.178708,204.050282 250.986362,204.054959 250.872943,204.196441 C250.778817,204.449588 251.023195,204.772308 251.293881,204.692797 C251.798422,204.553654 252.302963,204.412172 252.799319,204.24555 C252.58885,204.134469 252.494724,203.915815 252.459061,203.6919 C252.080217,203.776087 251.711896,203.896522 251.338898,204.001172 M253.401495,204.208134 C253.217919,204.343769 253.299768,204.646611 253.470482,204.755938 C253.635934,204.821417 253.81834,204.771723 253.983792,204.730798 C254.290142,204.635503 254.59766,204.54313 254.906348,204.453681 C254.78299,204.25432 254.625138,204.080683 254.453255,203.924 C254.104227,204.025142 253.750523,204.109915 253.401495,204.208134 M251.614846,204.755353 C251.37573,204.79277 251.390931,205.101458 251.511366,205.25054 C251.621277,205.414238 251.845193,205.372729 252.006553,205.329466 C252.446199,205.2026 252.884092,205.069887 253.323738,204.942437 C253.173487,204.782831 253.067083,204.59107 252.991665,204.386448 C252.522786,204.465374 252.072617,204.630241 251.614846,204.755353 M253.88265,204.924898 C253.779754,205.103796 253.844649,205.389099 254.05161,205.464517 C254.1966,205.518303 254.350359,205.455163 254.491841,205.417746 C254.80696,205.310758 255.134941,205.242355 255.441875,205.111981 C255.30624,204.927821 255.154819,204.756522 254.996967,204.59224 C254.619877,204.677596 254.240448,204.778154 253.88265,204.924898 M251.98609,205.486148 C251.982583,205.636985 251.929965,205.818806 252.045139,205.942749 C252.15622,206.094755 252.369027,206.048568 252.526879,206.016413 C252.976464,205.891886 253.418449,205.74105 253.870958,205.62763 C253.69849,205.470948 253.58507,205.26691 253.482174,205.061118 C252.978218,205.183891 252.483616,205.341159 251.98609,205.486148 M254.361467,205.589629 C254.307096,205.78139 254.310019,206.012321 254.491257,206.136849 C254.671909,206.203497 254.867762,206.153218 255.040815,206.08657 C255.32144,205.979581 255.622528,205.934564 255.893214,205.803021 C255.794411,205.604245 255.675145,205.417161 255.547694,205.235924 C255.150726,205.348174 254.760774,205.484394 254.361467,205.589629 M252.50057,206.176604 C252.399428,206.371288 252.465492,206.636712 252.671869,206.731424 C252.868891,206.77761 253.059482,206.679391 253.246566,206.630866 C253.602025,206.5116 253.973269,206.440275 254.319958,206.295285 C254.159768,206.132171 254.073826,205.921702 254.089027,205.69194 C253.563439,205.865577 253.019143,205.983089 252.50057,206.176604 M254.845546,206.2947 C254.621046,206.413381 254.735635,206.721485 254.898748,206.841335 C255.077647,206.924938 255.277592,206.859459 255.452399,206.797487 C255.693269,206.710377 255.943493,206.653082 256.186117,206.573572 C256.198979,206.554279 256.225288,206.515108 256.23815,206.495815 C256.188456,206.293531 256.071528,206.117556 255.975648,205.935149 C255.602065,206.066692 255.215036,206.155557 254.845546,206.2947 M253.141332,206.802749 C253.04662,206.840166 252.922093,206.854197 252.875322,206.958847 C252.797565,207.120207 252.9028,207.309629 253.034928,207.408432 C253.159455,207.48502 253.311461,207.438833 253.442419,207.406678 C253.876804,207.273966 254.314112,207.149438 254.75142,207.025496 C254.594737,206.84952 254.476056,206.637882 254.490672,206.394673 C254.048102,206.553109 253.592086,206.670037 253.141332,206.802749 M255.348333,206.968786 C255.230237,207.000941 255.060692,207.048881 255.073554,207.20381 C255.030291,207.460465 255.313255,207.72589 255.56231,207.611301 C255.877429,207.508405 256.192548,207.407263 256.508836,207.306706 C256.479604,207.092144 256.417633,206.884014 256.327599,206.686991 C255.993772,206.754809 255.676899,206.88226 255.348333,206.968786 M253.372848,207.568623 C253.113854,207.633517 253.175825,208.029316 253.368755,208.138643 C253.527776,208.213476 253.706675,208.159105 253.86745,208.120519 C254.289557,207.989561 254.715172,207.869126 255.139034,207.744598 C255.049584,207.666257 254.947273,207.59727 254.882378,207.495543 C254.835023,207.390309 254.833269,207.271627 254.813391,207.159377 C254.327558,207.276889 253.855757,207.442341 253.372848,207.568623 M255.382242,207.827616 C255.217375,208.043932 255.406797,208.4485 255.695607,208.391206 C256.037619,208.349697 256.352738,208.187752 256.688904,208.114673 C256.658503,207.893096 256.608809,207.675026 256.563207,207.456372 C256.17384,207.592593 255.767518,207.679119 255.382242,207.827616 M253.719537,208.317542 C253.622487,208.36022 253.476328,208.36782 253.459374,208.498194 C253.412018,208.694047 253.540053,208.972919 253.767477,208.966488 C253.968592,208.961811 254.156845,208.879962 254.34919,208.829683 C254.671325,208.723864 255.006321,208.654877 255.318517,208.519826 C255.164758,208.353204 255.064785,208.146243 255.0718,207.915897 C254.624554,208.061471 254.172045,208.188922 253.719537,208.317542 M255.741794,208.540288 C255.65176,208.580043 255.519047,208.609275 255.527232,208.733218 C255.465261,208.982273 255.718408,209.259975 255.974479,209.174618 C256.248089,209.099785 256.512344,208.993966 256.7842,208.911532 C256.761984,208.691124 256.72749,208.47247 256.690658,208.254986 C256.379047,208.365482 256.058082,208.444992 255.741794,208.540288 M253.94813,209.088092 C253.834126,209.129601 253.640026,209.153571 253.649965,209.313177 C253.614887,209.500845 253.747599,209.675652 253.908374,209.756331 C254.047518,209.776209 254.179646,209.714822 254.310604,209.677406 C254.726865,209.54177 255.153065,209.440628 255.567572,209.300315 C255.368211,209.167018 255.269407,208.950118 255.262392,208.713925 C254.817484,208.813313 254.391868,208.981688 253.94813,209.088092 M255.766933,209.38041 C255.421413,209.49266 255.662283,210.072035 255.986756,210.008894 C256.259197,209.947507 256.515267,209.825318 256.784785,209.751654 C256.792385,209.524815 256.794139,209.298561 256.789462,209.071722 C256.448034,209.171695 256.101929,209.259975 255.766933,209.38041 M254.379006,209.803687 C254.156845,209.867997 253.925913,209.910091 253.724214,210.028772 C253.739999,210.164992 253.705506,210.326352 253.808986,210.436263 C253.894928,210.522205 254.016532,210.606392 254.143398,210.557868 C254.658463,210.410539 255.171773,210.257949 255.685084,210.10419 C255.599727,210.045142 255.501508,209.998371 255.436613,209.915937 C255.372888,209.79901 255.368211,209.66162 255.340148,209.534754 C255.013921,209.603741 254.699972,209.717161 254.379006,209.803687 M255.786811,210.213517 C255.516709,210.32986 255.671053,210.726243 255.894384,210.808677 C256.083806,210.854863 256.268551,210.763075 256.443942,210.704611 C256.520529,210.670702 256.625764,210.643809 256.642718,210.547344 C256.692412,210.333367 256.726321,210.115298 256.801739,209.907752 C256.469666,210.029357 256.115376,210.084312 255.786811,210.213517 M253.930006,210.765998 C253.614887,210.895203 253.828279,211.387466 254.119428,211.385713 C254.225247,211.383374 254.32522,211.344203 254.425777,211.314972 C254.846715,211.174659 255.285777,211.089887 255.696777,210.918588 C255.488061,210.80283 255.402705,210.584176 255.392181,210.356168 C254.899917,210.474849 254.419931,210.639717 253.930006,210.765998 M260.696586,200.219745 C261.197034,199.889426 261.820256,199.805823 262.406062,199.872471 C262.624716,199.89878 262.830508,199.985306 263.011745,200.108664 C262.839862,200.204545 262.725858,200.362981 262.620623,200.524341 C262.400216,200.56585 262.372738,200.2367 262.174546,200.197529 C261.912629,200.154266 261.650712,200.246054 261.416273,200.355381 C261.24322,200.443661 261.057891,200.605605 261.088877,200.820167 C261.134478,201.107808 261.318639,201.370309 261.576463,201.507114 C261.647204,201.539854 261.758285,201.629888 261.651881,201.695367 C261.368917,201.956699 261.106416,202.323851 261.222758,202.730173 C261.273037,202.917841 261.499876,202.886271 261.649543,202.920765 C261.642527,202.96812 261.636096,203.015476 261.629665,203.063416 C261.502214,203.127726 261.381195,203.201975 261.261344,203.279731 C261.319808,203.522355 261.5256,203.662083 261.724961,203.784857 C261.594002,203.798304 261.463044,203.809412 261.33267,203.821104 C261.34787,203.952648 261.344947,204.102899 261.447259,204.203456 C261.565355,204.360139 261.767639,204.395802 261.949461,204.424449 C261.85475,204.498698 261.69339,204.541376 261.697483,204.686366 C261.818503,204.963484 262.169869,204.878127 262.411908,204.901512 C262.35286,204.991546 262.294981,205.082165 262.239441,205.174537 C262.460433,205.238263 262.69078,205.249955 262.917619,205.28211 C263.076055,206.583511 263.157319,207.892511 263.308156,209.194496 C263.336803,209.583279 263.354342,209.97557 263.440283,210.357922 C263.083071,210.22521 262.712411,210.124652 262.331228,210.100098 C261.938938,210.011817 261.537292,210.006556 261.137401,209.99194 C261.264267,209.575679 261.342024,209.125509 261.210481,208.699309 C261.081861,208.26317 260.772004,207.890757 260.383805,207.658657 C259.729597,207.248242 258.897075,207.120207 258.360964,206.528555 C258.005505,206.169003 257.899101,205.646923 257.890332,205.158752 C257.921317,204.028066 258.345179,202.93655 258.967816,202.002301 C259.433187,201.314769 259.996191,200.675177 260.696586,200.219745 M263.136273,200.315041 C263.290032,200.226761 263.48647,200.285224 263.605151,200.406829 C263.912085,200.700316 264.37804,200.844137 264.542907,201.267998 C264.286837,201.09553 264.027843,200.928324 263.761833,200.772811 C263.572411,200.619052 263.305232,200.591574 263.078978,200.668746 C262.773213,200.848814 262.636993,201.201934 262.373907,201.427604 C262.203778,201.521145 261.982201,201.507699 261.802717,201.444558 C261.547816,201.301907 261.34787,201.026543 261.322146,200.73364 C261.467721,200.54071 261.698652,200.381689 261.951215,200.417352 C262.202609,200.411506 262.347598,200.649453 262.493173,200.816074 C262.745736,200.700901 262.909434,200.466462 263.136273,200.315041 M262.663887,201.708814 C262.670902,201.315354 262.966728,200.826598 263.412221,200.876876 C263.551364,200.865768 263.615674,201.003742 263.690508,201.094361 C263.969964,201.101377 264.276898,201.165687 264.422472,201.432281 C264.186279,201.458589 263.930793,201.468528 263.733771,201.61878 C263.519794,201.755 263.404036,201.998209 263.192398,202.135598 C262.932819,202.229725 262.619454,201.987685 262.663887,201.708814 M262.92288,201.912852 C263.099441,202.031533 263.263723,201.87485 263.385328,201.757923 C263.281847,201.71466 263.162581,201.694782 263.079563,201.615857 C263.011745,201.512961 262.991867,201.355693 263.074301,201.255136 C263.178366,201.125931 263.401697,201.177964 263.480623,201.022451 C263.024022,200.938263 262.673825,201.5533 262.92288,201.912852 M263.219291,201.338154 C263.149135,201.489575 263.334464,201.615857 263.467177,201.625795 C263.6946,201.537515 263.903315,201.407141 264.120215,201.296645 C263.962364,201.260982 263.800419,201.252797 263.640229,201.269752 C263.586442,201.387264 263.53441,201.5305 263.381235,201.532254 C263.377143,201.428773 263.376558,201.324708 263.374804,201.221227 C263.323941,201.259813 263.24443,201.27326 263.219291,201.338154 M261.54957,202.119228 C261.747177,201.832172 262.075158,201.665551 262.403723,201.576686 C262.244702,202.394592 262.375076,203.284408 262.83577,203.987141 C263.009407,204.26192 263.26957,204.464204 263.498162,204.691043 C263.339726,204.911451 263.093594,205.048256 262.823492,205.071641 C262.801276,205.054102 262.755674,205.017855 262.732874,205.000316 C262.777306,204.862342 262.838108,204.730798 262.89131,204.596332 C262.636993,204.637841 262.3856,204.702736 262.12719,204.711505 C262.255226,204.509806 262.453417,204.327399 262.436463,204.067821 C262.216055,204.153178 261.974016,204.198195 261.741915,204.128623 C261.915552,203.955571 262.171623,203.818181 262.199685,203.549833 C261.993893,203.527617 261.789271,203.499554 261.586987,203.457461 C261.765301,203.223022 262.009679,202.998521 261.997986,202.678141 C261.811487,202.68691 261.622649,202.68691 261.440243,202.641308 C261.450182,202.464164 261.438489,202.270064 261.54957,202.119228 M263.96061,201.676074 C264.157632,201.576101 264.386225,201.605918 264.599032,201.618195 C264.364009,201.691275 264.085722,201.655612 263.893377,201.833926 C263.619182,202.067196 263.716816,202.498657 263.466007,202.752974 C263.328033,202.924272 263.091256,202.910241 262.896572,202.876917 C262.904172,202.744789 262.856232,202.584599 262.959712,202.47878 C263.108795,202.313912 263.307571,202.206339 263.474777,202.060765 C263.635552,201.932145 263.772941,201.768447 263.96061,201.676074 M264.322499,201.785986 C264.728822,201.624041 265.115851,201.918113 265.518081,201.952607 C265.50288,202.137352 265.46254,202.319174 265.397061,202.492811 C265.202377,202.363606 265.128713,202.12449 264.946891,201.983008 C264.772085,201.836849 264.533553,201.836264 264.322499,201.785986 M264.173417,202.177692 C264.377455,202.013409 264.72356,201.991778 264.902459,202.20517 C265.044525,202.356006 265.095973,202.562967 265.138652,202.760574 C264.881996,202.818453 264.628264,202.88744 264.377455,202.965782 C264.088645,203.053477 263.783465,203.028922 263.48647,203.047631 C263.753648,202.787468 263.87116,202.4057 264.173417,202.177692 M264.44235,203.15345 C264.721806,203.117202 264.962092,202.962274 265.226932,202.876917 C265.13339,203.152865 264.976123,203.403089 264.776762,203.614143 C264.672697,203.50657 264.586755,203.337026 264.412533,203.355149 C264.060582,203.341118 263.664199,203.314225 263.359604,203.52294 C263.129257,203.708854 263.249107,204.097053 263.521548,204.165455 C263.73494,204.20638 263.962948,204.216318 264.174587,204.161947 C264.365178,204.043266 264.492629,203.84449 264.692574,203.735747 C264.58734,203.964925 264.401425,204.154347 264.347639,204.40691 C264.30613,204.531437 264.303791,204.67935 264.207326,204.778739 C264.08046,204.934836 263.844852,204.908528 263.676476,204.845387 C263.594043,204.729629 263.585858,204.581716 263.525056,204.456604 C263.369542,204.322138 263.170766,204.225088 263.074301,204.034497 C262.94802,203.824612 262.980175,203.503647 263.209937,203.378535 C263.585273,203.161635 264.034858,203.246992 264.44235,203.15345 M263.505763,203.63519 C263.760664,203.488446 264.073444,203.509493 264.348223,203.581988 C264.464566,203.598358 264.393825,203.74744 264.402595,203.821689 C264.121385,203.68313 263.814451,203.650391 263.505763,203.63519 M257.985043,210.015325 C258.499523,209.746977 259.10696,209.885536 259.632548,210.048065 C259.942405,210.162069 260.278571,210.12056 260.600121,210.170254 C261.067245,210.263211 261.548401,210.235733 262.015525,210.332198 C262.475634,210.353245 262.932819,210.417555 263.370127,210.568391 C263.702785,210.693503 264.059998,210.710458 264.411949,210.698765 C264.689651,210.708119 264.893104,210.463157 265.167299,210.450879 C265.345028,210.424571 265.491187,210.574238 265.667747,210.557868 C265.782921,210.561376 265.920895,210.527467 266.010344,210.622762 C266.10564,210.750798 266.155919,210.906311 266.248876,211.0361 C266.406728,211.154781 266.635905,211.175244 266.749909,211.351219 C266.882037,211.548826 266.991364,211.762803 267.067367,211.988473 C267.016503,211.991396 266.915361,211.996657 266.864498,211.999581 C266.589719,211.688554 266.307924,211.383959 266.0501,211.058316 C265.978774,210.968282 265.895756,210.888772 265.806891,210.816277 C265.821507,210.961851 265.870032,211.099241 265.923234,211.234876 C265.762459,211.086379 265.617469,210.922681 265.458448,210.773014 C265.380691,210.680057 265.249148,210.71455 265.143913,210.701104 C265.110005,210.990498 265.437985,211.140165 265.425708,211.421375 C265.138652,211.406759 264.919998,211.201552 264.656911,211.112687 C264.333023,211.00336 263.988088,210.97179 263.647245,210.972959 C263.400528,210.981144 263.190644,210.833231 262.960297,210.770675 C262.470957,210.637963 261.965831,210.582422 261.460121,210.557868 C260.90647,210.470172 260.344635,210.519282 259.786892,210.49005 C259.389924,210.479526 259.022187,210.288935 258.625804,210.280165 C258.410658,210.311736 258.17505,210.356753 258.01369,210.515189 C257.792697,210.760736 257.849992,211.155366 258.055784,211.391559 C258.24696,211.607874 258.540447,211.690308 258.814642,211.738833 C259.372385,211.79145 259.931881,211.73591 260.490209,211.748772 C261.057306,211.762803 261.617388,211.658153 262.184485,211.67043 C262.58613,211.649968 262.987775,211.6716 263.38942,211.685631 C263.37305,211.654061 263.340895,211.592089 263.324525,211.561103 C263.021684,211.427806 262.684933,211.411437 262.359291,211.401498 C261.44492,211.383374 260.529964,211.38162 259.615593,211.392144 C259.305736,211.395651 258.9304,211.476916 258.691868,211.223768 C258.555063,211.111518 258.518816,210.871817 258.656205,210.74729 C259.036803,210.621008 259.444295,210.720981 259.831909,210.759567 C260.418883,210.880002 261.025151,210.801076 261.612711,210.91625 C262.123683,210.968282 262.629978,211.057732 263.129257,211.176997 C263.784634,211.318479 264.532969,211.218507 265.087204,211.667507 C265.247394,211.818928 265.450847,211.897269 265.672425,211.876222 C265.677686,211.720125 265.688794,211.565196 265.706333,211.410267 C265.896925,211.456454 266.081085,211.526025 266.265246,211.592674 C266.490331,211.6716 266.618366,211.894931 266.706646,212.102477 C264.107938,212.138139 261.507476,212.103646 258.908768,212.0978 C258.486076,212.053952 258.030644,211.977949 257.702079,211.686216 C257.396899,211.426637 257.287572,210.978221 257.398653,210.599961 C257.483425,210.32109 257.730141,210.132253 257.985043,210.015325 M246.07308,213.107466 C246.100557,212.952538 246.282964,212.991124 246.398722,212.974754 C253.024989,212.975923 259.651841,212.974754 266.278108,212.975339 C266.79668,212.988785 267.317591,212.942599 267.83324,213.008663 C267.834994,213.043741 267.837917,213.113897 267.839671,213.148975 C260.6732,213.159499 253.506729,213.146637 246.340843,213.155406 C246.252563,213.143129 246.142651,213.175869 246.07308,213.107466 M264.872642,213.628962 C264.94923,213.635977 265.025817,213.642993 265.102989,213.649424 C265.143329,213.76109 265.147421,213.878601 265.121113,213.994944 C265.014709,213.990852 264.908305,213.987344 264.80307,213.982667 C264.763315,213.855801 264.79547,213.733612 264.872642,213.628962 M247.891298,213.780967 C248.088905,213.77629 248.286512,213.775706 248.484704,213.774536 C248.505166,214.245753 248.452549,214.721062 248.520367,215.189941 C248.844255,215.241973 249.173405,215.238465 249.499632,215.212741 C250.255567,215.227942 251.01501,215.25542 251.769775,215.205141 C251.767436,215.16597 251.76159,215.088214 251.758667,215.049043 C251.655771,214.995257 251.551706,214.928608 251.430686,214.935624 C250.786417,214.930947 250.141563,214.939716 249.496709,214.935039 C249.324242,214.921008 249.107342,214.939132 248.99743,214.774264 C248.858287,214.567888 248.944228,214.307724 248.952413,214.079132 C248.903304,214.117133 248.87758,214.166243 248.875241,214.22646 C248.865887,214.436929 248.893365,214.646813 248.929028,214.854359 C248.47535,214.725155 248.552522,214.062177 248.899211,213.852877 C249.095649,213.683333 249.361074,213.804353 249.587328,213.822476 C249.541142,213.930049 249.486186,214.037623 249.473908,214.156304 C249.524187,214.256276 249.612467,214.342803 249.732902,214.332279 C250.397049,214.350403 251.062365,214.320002 251.727097,214.342803 C251.977321,214.346895 252.209421,214.504162 252.333949,214.717554 C252.440353,215.019227 252.387151,215.347792 252.398259,215.661742 C252.231638,215.68162 252.064432,215.700328 251.896056,215.699159 C250.960638,215.695651 250.02522,215.697405 249.089802,215.697405 C248.741359,215.696236 248.382393,215.72196 248.045642,215.613217 C247.909422,215.561185 247.878436,215.402164 247.885452,215.272959 C247.886621,214.775433 247.881359,214.277908 247.891298,213.780967 M265.889909,213.77629 C266.090439,213.77629 266.29097,213.776875 266.492085,213.775706 C266.500854,214.238153 266.487407,214.7006 266.500269,215.163632 C266.792003,215.253666 267.098937,215.241389 267.397101,215.196372 C267.422241,214.912238 267.41581,214.62752 267.408794,214.342803 C267.602893,214.335202 267.798162,214.334618 267.992846,214.338126 C267.996938,214.78128 268.014477,215.225603 267.981738,215.668758 C267.610494,215.716113 267.235742,215.692728 266.862744,215.698574 C266.604919,215.702082 266.344172,215.68922 266.092778,215.629002 C265.898679,215.602109 265.893417,215.36767 265.867693,215.216834 C265.845477,214.736847 265.841969,214.254523 265.889909,213.77629 M253.576301,213.789737 C253.780924,213.776875 253.986131,213.776875 254.190754,213.789737 C254.216478,214.255107 254.185492,214.721062 254.210631,215.186433 C254.334574,215.201049 254.459102,215.214495 254.584214,215.226188 C254.612276,214.929777 254.612861,214.631028 254.576614,214.335787 C254.771297,214.334033 254.965981,214.336956 255.160665,214.34748 C255.253038,214.623428 255.244853,214.916331 255.244268,215.203387 C255.336056,215.20631 255.427844,215.211572 255.519632,215.218003 C255.553541,214.923346 255.551202,214.624597 255.488646,214.334033 C255.691515,214.334033 255.894968,214.336372 256.098422,214.349234 C256.159808,214.624013 256.137008,214.906977 256.143439,215.186433 C256.247504,215.186433 256.352154,215.187017 256.456804,215.187017 C256.457388,214.902884 256.466158,214.616997 256.425233,214.335202 C256.619333,214.339295 256.819863,214.311817 257.0087,214.368527 C257.088211,214.4761 257.072426,214.615828 257.077103,214.742109 C257.075933,215.048459 257.073595,215.355393 257.075933,215.662327 C256.715797,215.716113 256.350984,215.694482 255.98851,215.69682 C255.383412,215.690974 254.777728,215.709098 254.173215,215.689805 C253.95573,215.659403 253.621318,215.674019 253.587994,215.384624 C253.541223,214.855529 253.569285,214.320586 253.576301,213.789737 M257.279971,213.786814 C257.480502,213.777459 257.681032,213.777459 257.881562,213.78506 C257.900855,214.242245 257.888578,214.699431 257.888578,215.156616 C258.273268,215.225603 258.666144,215.187017 259.054927,215.185263 C259.061358,214.905223 259.063112,214.625182 259.053173,214.345726 C259.252534,214.335202 259.451895,214.334033 259.651256,214.342218 C259.644825,214.782449 259.647748,215.223265 259.648333,215.663496 C259.268904,215.719621 258.884798,215.692143 258.502446,215.697989 C258.153418,215.69682 257.794451,215.720206 257.455947,215.615556 C257.303942,215.55183 257.27471,215.364747 257.27471,215.218588 C257.271202,214.741525 257.270617,214.263877 257.279971,213.786814 M261.121616,213.977405 C261.247898,213.827738 261.46129,213.8406 261.636096,213.799091 C261.5408,213.966297 261.464213,214.161565 261.611541,214.325848 C262.310766,214.353326 263.01116,214.322925 263.71097,214.339295 C263.978733,214.333448 264.24182,214.488377 264.372194,214.721062 C264.43475,214.867221 264.42598,215.02975 264.443519,215.184679 C264.652234,215.195202 264.861534,215.195787 265.070834,215.184094 C265.07668,214.903469 265.07785,214.623428 265.070834,214.342803 C265.273118,214.334033 265.475402,214.334033 265.678271,214.341633 C265.674763,214.781864 265.67944,215.22268 265.674763,215.663496 C265.370752,215.699743 265.06148,215.721375 264.756884,215.68162 C264.64288,215.668758 264.556939,215.588078 264.470412,215.521429 C264.400256,215.617894 264.307299,215.711436 264.17634,215.696236 C263.259631,215.701497 262.342921,215.692728 261.425627,215.699159 C261.232697,215.702082 261.040352,215.688635 260.849176,215.665834 C260.848006,215.519675 260.847422,215.374101 260.848591,215.228527 C261.450182,215.232034 262.051772,215.216834 262.653363,215.23028 C263.038638,215.203972 263.425668,215.243727 263.809189,215.191694 C263.80802,215.156616 263.804512,215.085875 263.802758,215.050212 C263.699862,214.995257 263.595797,214.927439 263.474192,214.935624 C262.829923,214.931531 262.185069,214.937962 261.5408,214.936208 C261.366579,214.935039 261.166633,214.923346 261.053798,214.770172 C260.833975,214.549179 260.933363,214.184366 261.121616,213.977405 M246.30518,214.34748 C246.627899,214.315325 246.953542,214.305971 247.276261,214.338126 C247.489653,214.348649 247.645751,214.555026 247.661536,214.75731 C247.683752,215.058982 247.665044,215.362408 247.667383,215.66525 C247.28503,215.715529 246.898586,215.698574 246.51448,215.695651 C246.36949,215.679281 246.204623,215.678696 246.085357,215.585739 C245.997661,215.44835 246.019293,215.277051 246,215.122707 C246.364813,215.228527 246.750088,215.198125 247.124255,215.177079 C247.102624,215.089383 247.069884,214.993503 246.972835,214.967779 C246.750088,214.918085 246.519157,214.955501 246.301088,215.009873 C246.298749,214.78888 246.298749,214.568472 246.30518,214.34748 M252.795227,214.334033 C252.988157,214.321756 253.182256,214.321171 253.375771,214.327017 C253.38571,214.759648 253.386294,215.192279 253.381617,215.625495 C253.39331,215.865195 253.196872,216.042925 252.998096,216.138221 C252.798735,216.25164 252.560788,216.213639 252.349149,216.163945 C252.463738,216.072741 252.590604,215.993815 252.6859,215.881565 C252.794058,215.742422 252.801073,215.558846 252.800489,215.391055 C252.79815,215.03852 252.797565,214.686569 252.795227,214.334033 M258.217143,215.85701 C258.359795,215.832456 258.498353,215.859349 258.611773,215.952891 C258.709407,215.869872 258.884213,215.774577 258.976586,215.910797 C259.061358,216.014278 258.968986,216.120681 258.89766,216.199607 C258.790087,216.225331 258.698884,216.152836 258.609434,216.10665 C258.494261,216.174468 258.365641,216.207792 258.231759,216.198438 C258.224159,216.084434 258.218897,215.97043 258.217143,215.85701 M259.134438,215.843564 C259.220964,215.844733 259.30749,215.845318 259.394601,215.846487 C259.426171,215.963414 259.423248,216.083265 259.377646,216.197269 C259.29989,216.200192 259.222133,216.204869 259.144961,216.209546 C259.061943,216.092034 259.056681,215.964584 259.134438,215.843564 M267.100691,215.861103 C267.212941,215.857595 267.325776,215.856426 267.438611,215.858764 C267.436857,215.969845 267.432764,216.082095 267.426918,216.193761 C267.322268,216.182068 267.163832,216.253978 267.116476,216.121266 C267.069705,216.04234 267.106537,215.945875 267.100691,215.861103 M246.076003,216.819906 C253.328415,216.815814 260.580828,216.818152 267.83324,216.819322 C267.832655,216.87837 267.832655,216.938588 267.833825,216.998805 C260.580828,216.99939 253.328415,217.001728 246.076003,216.997636 C246.076003,216.938003 246.076003,216.878955 246.076003,216.819906" id="Fill-2"></path>
        </g>
    </g>
</svg>