<?xml version="1.0" encoding="UTF-8"?>
<svg width="22px" height="16px" viewBox="0 0 22 16" version="1.1" xmlns="http://www.w3.org/2000/svg" xmlns:xlink="http://www.w3.org/1999/xlink">
    <!-- Generator: Sketch 50.2 (55047) - http://www.bohemiancoding.com/sketch -->
    <title>credit-card</title>
    <desc>Created with Sketch.</desc>
    <defs></defs>
    <g id="Page-1" stroke="none" stroke-width="1" fill="none" fill-rule="evenodd">
        <g id="Desktop-HD-Copy-12" transform="translate(-620.000000, -740.000000)" fill-rule="nonzero">
            <g id="credit-card" transform="translate(620.000000, 740.000000)">
                <path d="M20.28125,0 L1.71875,0 C0.771074219,0 0,0.780217391 0,1.73913043 L0,14.2608696 C0,15.2197826 0.771074219,16 1.71875,16 L20.28125,16 C21.2289258,16 22,15.2197826 22,14.2608696 L22,1.73913043 C22,0.780217391 21.2289258,0 20.28125,0 Z" id="Shape" fill="#5D647F"></path>
                <path d="M7.5625,6.95652174 L3.4375,6.95652174 C3.05778516,6.95652174 2.75,6.64508696 2.75,6.26086957 L2.75,3.47826087 C2.75,3.09404348 3.05778516,2.7826087 3.4375,2.7826087 L7.5625,2.7826087 C7.94221484,2.7826087 8.25,3.09404348 8.25,3.47826087 L8.25,6.26086957 C8.25,6.64508696 7.94221484,6.95652174 7.5625,6.95652174 Z" id="Shape" fill="#FFD100"></path>
                <g id="Group" transform="translate(2.750000, 9.739130)" fill="#B8BAC0">
                    <path d="M2.40625,1.73913043 L0.6875,1.73913043 C0.307785156,1.73913043 0,1.42769565 0,1.04347826 L0,0.695652174 C0,0.311434783 0.307785156,0 0.6875,0 L2.40625,0 C2.78596484,0 3.09375,0.311434783 3.09375,0.695652174 L3.09375,1.04347826 C3.09375,1.42769565 2.78596484,1.73913043 2.40625,1.73913043 Z" id="Shape"></path>
                    <path d="M6.875,1.73913043 L5.15625,1.73913043 C4.77653516,1.73913043 4.46875,1.42769565 4.46875,1.04347826 L4.46875,0.695652174 C4.46875,0.311434783 4.77653516,0 5.15625,0 L6.875,0 C7.25471484,0 7.5625,0.311434783 7.5625,0.695652174 L7.5625,1.04347826 C7.5625,1.42769565 7.25471484,1.73913043 6.875,1.73913043 Z" id="Shape"></path>
                    <path d="M11.34375,1.73913043 L9.625,1.73913043 C9.24528516,1.73913043 8.9375,1.42769565 8.9375,1.04347826 L8.9375,0.695652174 C8.9375,0.311434783 9.24528516,0 9.625,0 L11.34375,0 C11.7234648,0 12.03125,0.311434783 12.03125,0.695652174 L12.03125,1.04347826 C12.03125,1.42769565 11.7234648,1.73913043 11.34375,1.73913043 Z" id="Shape"></path>
                    <path d="M15.8125,1.73913043 L14.09375,1.73913043 C13.7140352,1.73913043 13.40625,1.42769565 13.40625,1.04347826 L13.40625,0.695652174 C13.40625,0.311434783 13.7140352,0 14.09375,0 L15.8125,0 C16.1922148,0 16.5,0.311434783 16.5,0.695652174 L16.5,1.04347826 C16.5,1.42769565 16.1922148,1.73913043 15.8125,1.73913043 Z" id="Shape"></path>
                </g>
                <path d="M9.96875,13.5652174 L3.09375,13.5652174 C2.90374219,13.5652174 2.75,13.4094783 2.75,13.2173913 C2.75,13.0253043 2.90374219,12.8695652 3.09375,12.8695652 L9.96875,12.8695652 C10.1587578,12.8695652 10.3125,13.0253043 10.3125,13.2173913 C10.3125,13.4094783 10.1587578,13.5652174 9.96875,13.5652174 Z" id="Shape" fill="#8A8895"></path>
                <path d="M14.4375,13.5652174 L11.34375,13.5652174 C11.1537422,13.5652174 11,13.4094783 11,13.2173913 C11,13.0253043 11.1537422,12.8695652 11.34375,12.8695652 L14.4375,12.8695652 C14.6275078,12.8695652 14.78125,13.0253043 14.78125,13.2173913 C14.78125,13.4094783 14.6275078,13.5652174 14.4375,13.5652174 Z" id="Shape" fill="#8A8895"></path>
                <polygon id="Shape" fill="#FF9500" points="8.25 5.2173913 4.8125 5.2173913 4.8125 4.52173913 8.25 4.52173913 8.25 3.82608696 4.8125 3.82608696 4.8125 2.7826087 4.125 2.7826087 4.125 6.95652174 4.8125 6.95652174 4.8125 5.91304348 8.25 5.91304348"></polygon>
                <ellipse id="Oval" fill="#FFD100" cx="17.1875" cy="4.86956522" rx="2.0625" ry="2.08695652"></ellipse>
            </g>
        </g>
    </g>
</svg>