<?xml version="1.0" encoding="UTF-8"?>
<svg width="32px" height="18px" viewBox="0 0 32 18" version="1.1" xmlns="http://www.w3.org/2000/svg" xmlns:xlink="http://www.w3.org/1999/xlink">
    <!-- Generator: Sketch 50.2 (55047) - http://www.bohemiancoding.com/sketch -->
    <title>Shape</title>
    <desc>Created with Sketch.</desc>
    <defs></defs>
    <g id="Page-1" stroke="none" stroke-width="1" fill="none" fill-rule="evenodd">
        <g id="Desktop-HD-Copy-12" transform="translate(-799.000000, -435.000000)" fill="#C0C0C0" fill-rule="nonzero">
            <path d="M830.466667,437.704 L825.885333,437.704 L825.885333,436.104 C825.885333,435.494267 825.391067,435 824.781333,435 L808.866667,435 C808.256933,435 807.762667,435.494267 807.762667,436.104 L807.762667,439.432 L803.464,439.432 C803.272667,439.431267 803.095667,439.533 803,439.698667 L800.834667,443.48 L799.533333,443.48 C799.2388,443.48 799,443.7188 799,444.013333 L799,449.986667 C799,450.2812 799.2388,450.52 799.533333,450.52 L801.090667,450.52 C801.3874,452.079667 802.892333,453.1034 804.452,452.806667 C805.611333,452.586067 806.518067,451.679333 806.738667,450.52 L808.296,450.52 C808.375867,450.517867 808.454267,450.4978 808.525333,450.461333 C808.633467,450.4988 808.746933,450.5186 808.861333,450.52 L815.837333,450.52 C816.134067,452.079667 817.639,453.1034 819.198667,452.806667 C820.358,452.586067 821.264733,451.679333 821.485333,450.52 L824.781333,450.52 C825.391067,450.52 825.885333,450.025733 825.885333,449.416 L825.885333,444.546667 L829.330667,444.546667 C829.6252,444.546667 829.864,444.307867 829.864,444.013333 C829.864,443.7188 829.6252,443.48 829.330667,443.48 L825.885333,443.48 L825.885333,441.656 L826.488,441.656 C826.782533,441.656 827.021333,441.4172 827.021333,441.122667 C827.021333,440.828133 826.782533,440.589333 826.488,440.589333 L825.885333,440.589333 L825.885333,438.770667 L830.466667,438.770667 C830.7612,438.770667 831,438.531867 831,438.237333 C831,437.9428 830.7612,437.704 830.466667,437.704 Z M803.773333,440.52 L807.762667,440.52 L807.762667,443.48 L802.066667,443.48 L803.773333,440.52 Z M803.917333,451.794667 C803.915533,451.794667 803.9138,451.794667 803.912,451.794667 L803.917333,451.794667 C802.915867,451.794667 802.104,450.9828 802.104,449.981333 C802.104,448.979867 802.915867,448.168 803.917333,448.168 C804.9188,448.168 805.730667,448.979867 805.730667,449.981333 C805.730667,450.9828 804.9188,451.794667 803.917333,451.794667 Z M806.738667,449.448 C806.441933,447.888333 804.937,446.8646 803.377333,447.161333 C802.218,447.381933 801.311267,448.288667 801.090667,449.448 L800.066667,449.448 L800.066667,444.546667 L807.762667,444.546667 L807.762667,449.448 L806.738667,449.448 Z M818.669333,451.794667 C818.667533,451.794667 818.6658,451.794667 818.664,451.794667 L818.669333,451.794667 C817.667867,451.794667 816.856,450.9828 816.856,449.981333 C816.856,448.979867 817.667867,448.168 818.669333,448.168 C819.6708,448.168 820.482667,448.979867 820.482667,449.981333 C820.482667,450.9828 819.6708,451.794667 818.669333,451.794667 Z M824.824,437.725333 L822.274667,437.725333 C821.980133,437.725333 821.741333,437.964133 821.741333,438.258667 C821.741333,438.5532 821.980133,438.792 822.274667,438.792 L824.813333,438.792 L824.813333,440.594667 L818.290667,440.594667 C817.996133,440.594667 817.757333,440.833467 817.757333,441.128 C817.757333,441.422533 817.996133,441.661333 818.290667,441.661333 L824.802667,441.661333 L824.802667,443.485333 L821.133333,443.485333 C820.8388,443.485733 820.600333,443.724867 820.600733,444.0194 C820.601133,444.3134 820.839333,444.5516 821.133333,444.552 L824.792,444.552 L824.792,449.453333 L821.490667,449.453333 C821.193933,447.893667 819.689,446.869933 818.129333,447.166667 C816.97,447.387267 816.063267,448.294 815.842667,449.453333 L808.834667,449.421333 L808.872,436.088 L824.824,436.125333 L824.824,437.725333 Z" id="Shape"></path>
        </g>
    </g>
</svg>